PathFileType	4	(X/Y/Z)	C:\Users\WrightLab\Desktop\Jo\P4V113.trc
DataRate	CameraRate	NumFrames	NumMarkers	Units	OrigDataRate	OrigDataStartFrame	OrigNumFrames
100.00	100.00	       71	19	mm	100.00	497	       567
Frame#	Time	Headset_Front			Headset_Back			Headset_Left			Headset_Right			Left_Shoulder			Right_Shoulder			Sternum			C7			Left Elbow			Right Elbow			Left Wrist			Right Wrist			Left ASIS			Right ASIS			S2			Left Knee			Right Knee			Left Ankle			Right Ankle			
		X1	Y1	Z1	X2	Y2	Z2	X3	Y3	Z3	X4	Y4	Z4	X5	Y5	Z5	X6	Y6	Z6	X7	Y7	Z7	X8	Y8	Z8	X9	Y9	Z9	X10	Y10	Z10	X11	Y11	Z11	X12	Y12	Z12	X13	Y13	Z13	X14	Y14	Z14	X15	Y15	Z15	X16	Y16	Z16	X17	Y17	Z17	X18	Y18	Z18	X19	Y19	Z19	

497	4.960																																														-356.76697	610.31781	2683.82373										
498	4.970																																														-358.08051	609.84821	2686.08472										
499	4.980																																														-359.35297	609.27417	2688.49438										
500	4.990																																														-360.37396	609.20947	2690.45117										
501	5.000																																														-361.47495	608.86365	2693.05493										
502	5.010																																														-362.62396	609.11841	2695.08667										
503	5.020																																														-363.93643	608.46826	2697.18286										
504	5.030																																														-365.39996	608.71515	2698.67041										
505	5.040																																														-366.64117	608.53131	2699.60864										
506	5.050																																														-368.05893	608.15454	2700.94019										
507	5.060																																														-369.51297	608.25562	2701.79712										
508	5.070																																														-371.18228	608.29572	2702.74585										
509	5.080																																														-372.71075	607.63910	2703.04688										
510	5.090																																														-374.01947	607.35950	2703.56226										
511	5.100																																														-375.67825	607.28571	2704.97461										
512	5.110																																														-376.93274	607.34698	2705.67822										
513	5.120																																														-378.06006	606.96027	2705.67603										
514	5.130																																														-379.85974	606.35107	2705.79004										
515	5.140																																														-381.81662	606.72559	2706.36133										
516	5.150																																														-383.35806	606.30493	2706.19409										
517	5.160																																														-385.78662	605.83380	2706.84937										
518	5.170																																														-387.76563	605.79504	2706.92773										
519	5.180																																														-389.80322	605.46423	2706.96411										
520	5.190																																														-392.36520	605.47217	2706.84863										
521	5.200																																														-394.17068	604.57288	2705.97607										
522	5.210																																														-396.45020	604.12280	2705.26099										
523	5.220																																														-398.53583	604.21143	2705.14185										
524	5.230																																														-400.62039	603.31226	2703.77759										
525	5.240																																														-402.74042	603.79236	2703.47363										
526	5.250																																														-404.60907	602.94556	2701.47607										
527	5.260																																														-406.58804	603.38153	2700.80518										
528	5.270																																														-408.66135	602.57776	2699.64941										
529	5.280																																														-410.36865	602.54541	2699.04028										
530	5.290																																														-412.26776	602.23242	2697.52002										
531	5.300																																														-412.94461	602.15729	2695.93408										
532	5.310																																														-414.26321	601.64490	2694.49072										
533	5.320																																														-415.34399	601.66553	2693.37720										
534	5.330																																														-415.71762	601.15112	2692.53320										
535	5.340																																														-416.03384	600.94464	2691.05884										
536	5.350																																														-416.55792	601.11688	2689.44019										
537	5.360																																														-416.71533	600.84918	2688.04077										
538	5.370																																														-416.79276	600.94513	2687.31152										
539	5.380																																														-416.02228	600.64551	2685.29590										
540	5.390																																														-416.05585	601.07318	2684.42554										
541	5.400																																														-415.31516	600.41418	2682.48218										
542	5.410																																														-415.10623	600.26373	2681.17139										
543	5.420																																														-414.64981	600.65924	2679.45386										
544	5.430																																														-414.37030	600.85004	2678.92676										
545	5.440																																														-413.35980	600.27557	2677.09644										
546	5.450																																														-412.76407	600.53778	2675.82861										
547	5.460																																														-411.94485	600.51807	2674.41968										
548	5.470																																														-411.00519	600.59698	2673.33179										
549	5.480																																														-409.81946	600.48865	2672.22778										
550	5.490																																														-408.64636	601.05267	2671.05811										
551	5.500																																														-407.44211	601.05115	2669.70190										
552	5.510																																														-406.48260	600.89490	2668.81128										
553	5.520																																														-405.33197	600.95746	2667.43945										
554	5.530																																														-404.29037	601.24823	2665.97900										
555	5.540																																														-403.75919	601.43390	2664.98608										
556	5.550																																														-402.95291	600.80316	2663.09570										
557	5.560																																														-402.70142	600.77972	2661.21118										
558	5.570																																														-405.01077	602.21051	2660.62451										
559	5.580																																														-403.87155	600.86682	2657.33276										
560	5.590																																														-403.23666	600.83704	2655.14429										
561	5.600																																														-402.96475	601.19147	2654.39429										
562	5.610																																														-402.94556	601.51166	2651.98828										
563	5.620																																														-403.02832	601.90875	2649.90234										
564	5.630																																														-402.98010	602.12213	2647.56738										
565	5.640																																														-402.87088	601.87726	2645.50488										
566	5.650																																														-402.93585	602.06799	2642.89722										
567	5.660																																														-402.66327	601.97467	2640.68555										
